# Blender v3.2.1 OBJ File: '3d_button_pentagram_circled.blend'
# www.blender.org
mtllib 3D_pentagram.mtl
o MESH_Circle.001
v -1.000000 -0.000000 0.000000
v -0.309017 0.951056 0.000000
v 0.809017 0.587785 -0.000000
v 0.809017 -0.587785 -0.000000
v -0.309017 -0.951057 0.000000
v -0.773873 -0.000000 0.000000
v -0.747504 0.200293 0.000000
v -0.670194 0.386936 0.000000
v -0.547211 0.547211 0.000000
v -0.386937 0.670194 0.000000
v -0.200293 0.747504 0.000000
v -0.000000 0.773873 -0.000000
v 0.200293 0.747504 -0.000000
v 0.386936 0.670194 -0.000000
v 0.547211 0.547211 -0.000000
v 0.670194 0.386937 -0.000000
v 0.747504 0.200293 -0.000000
v 0.773873 0.000000 -0.000000
v 0.747504 -0.200293 -0.000000
v 0.670194 -0.386936 -0.000000
v 0.547211 -0.547211 -0.000000
v 0.386937 -0.670194 -0.000000
v 0.200293 -0.747504 -0.000000
v 0.000000 -0.773873 0.000000
v -0.200293 -0.747504 0.000000
v -0.386936 -0.670194 0.000000
v -0.547211 -0.547211 0.000000
v -0.670194 -0.386937 0.000000
v -0.747504 -0.200293 0.000000
v -1.000000 -0.000000 0.099683
v -0.309017 0.951056 0.099683
v 0.809017 0.587785 0.099682
v 0.809017 -0.587785 0.099682
v -0.309017 -0.951057 0.099683
v -0.773873 -0.000000 0.099683
v -0.747504 0.200293 0.099683
v -0.670194 0.386936 0.099683
v -0.547211 0.547211 0.099683
v -0.386937 0.670194 0.099683
v -0.200293 0.747504 0.099683
v -0.000000 0.773873 0.099683
v 0.200293 0.747504 0.099683
v 0.386936 0.670194 0.099683
v 0.547211 0.547211 0.099683
v 0.670194 0.386937 0.099683
v 0.747504 0.200293 0.099683
v 0.773873 0.000000 0.099683
v 0.747504 -0.200293 0.099683
v 0.670194 -0.386936 0.099683
v 0.547211 -0.547211 0.099683
v 0.386937 -0.670194 0.099683
v 0.200293 -0.747504 0.099683
v 0.000000 -0.773873 0.099683
v -0.200293 -0.747504 0.099683
v -0.386936 -0.670194 0.099683
v -0.547211 -0.547211 0.099683
v -0.670194 -0.386937 0.099683
v -0.747504 -0.200293 0.099683
v -0.240959 0.741595 0.010977
v -0.240959 -0.741595 0.010977
v -0.779759 -0.000000 0.010977
v 0.630838 0.458331 0.010977
v 0.630838 -0.458331 0.010977
v -0.677992 0.181667 0.004635
v -0.701908 -0.000000 0.004635
v -0.607871 0.350954 0.004635
v -0.496324 0.496324 0.004635
v -0.350954 0.607871 0.004635
v -0.181667 0.677991 0.004635
v -0.000000 0.701908 0.004635
v 0.181667 0.677992 0.004635
v 0.350954 0.607871 0.004635
v 0.496324 0.496324 0.004635
v 0.607870 0.350954 0.004635
v 0.677991 0.181667 0.004635
v 0.701908 0.000000 0.004635
v 0.677992 -0.181667 0.004635
v 0.607871 -0.350954 0.004635
v 0.496324 -0.496324 0.004635
v 0.350954 -0.607871 0.004635
v 0.181667 -0.677992 0.004635
v 0.000000 -0.701908 0.004635
v -0.181667 -0.677992 0.004635
v -0.350954 -0.607871 0.004635
v -0.496324 -0.496324 0.004635
v -0.607870 -0.350954 0.004635
v -0.677992 -0.181667 0.004635
v -0.240959 0.741595 0.088706
v -0.240959 -0.741595 0.088706
v -0.779759 -0.000000 0.088706
v 0.630838 0.458331 0.088705
v 0.630838 -0.458331 0.088705
v -0.677992 0.181667 0.095048
v -0.701908 -0.000000 0.095048
v -0.607871 0.350954 0.095048
v -0.496324 0.496324 0.095048
v -0.350954 0.607871 0.095048
v -0.181667 0.677991 0.095048
v -0.000000 0.701908 0.095048
v 0.181667 0.677992 0.095048
v 0.350954 0.607871 0.095048
v 0.496324 0.496324 0.095048
v 0.607870 0.350954 0.095048
v 0.677991 0.181667 0.095048
v 0.701908 0.000000 0.095048
v 0.677992 -0.181667 0.095048
v 0.607871 -0.350954 0.095048
v 0.496324 -0.496324 0.095048
v 0.350954 -0.607871 0.095048
v 0.181667 -0.677992 0.095048
v 0.000000 -0.701908 0.095048
v -0.181667 -0.677992 0.095048
v -0.350954 -0.607871 0.095048
v -0.496324 -0.496324 0.095048
v -0.607870 -0.350954 0.095048
v -0.677992 -0.181667 0.095048
vn 0.6088 -0.7934 0.0000
vn 0.3827 -0.9239 0.0000
vn 0.1305 -0.9914 0.0000
vn -0.1305 -0.9914 0.0000
vn -0.1305 0.9914 0.0000
vn -0.3827 -0.9239 0.0000
vn 0.1305 0.9914 0.0000
vn -0.6088 -0.7934 0.0000
vn 0.3827 0.9239 0.0000
vn -0.7934 -0.6088 0.0000
vn 0.6088 0.7934 0.0000
vn -1.0000 -0.0000 0.0000
vn -0.9239 -0.3827 0.0000
vn 0.7934 0.6088 0.0000
vn -0.3090 0.9511 0.0000
vn -0.9914 -0.1305 0.0000
vn 0.9239 0.3827 0.0000
vn 0.8090 0.5878 0.0000
vn 0.9914 0.1305 0.0000
vn -0.3090 -0.9511 0.0000
vn 0.9914 -0.1305 0.0000
vn 0.8090 -0.5878 0.0000
vn 0.9239 -0.3827 0.0000
vn 0.7934 -0.6088 0.0000
vn -0.6088 0.7934 0.0000
vn -0.3827 0.9239 0.0000
vn 1.0000 0.0000 0.0000
vn 0.3090 -0.9511 0.0000
vn -0.8090 -0.5878 0.0000
vn 0.3090 0.9511 0.0000
vn -0.9914 0.1305 0.0000
vn -0.8090 0.5878 0.0000
vn -0.9239 0.3827 0.0000
vn -0.7934 0.6088 0.0000
vn -0.0248 -0.0599 0.9979
vn -0.0599 -0.0248 -0.9979
vn -0.0395 -0.0514 0.9979
vn -0.0643 -0.0085 -0.9979
vn -0.0514 -0.0395 0.9979
vn -0.0643 0.0085 -0.9979
vn -0.0599 -0.0248 0.9979
vn -0.0599 0.0248 -0.9979
vn -0.0643 -0.0085 0.9979
vn -0.0514 0.0395 -0.9979
vn -0.0643 0.0085 0.9979
vn -0.0395 0.0514 -0.9979
vn -0.0599 0.0248 0.9979
vn -0.0248 0.0599 -0.9979
vn -0.0514 0.0395 0.9979
vn -0.0085 0.0643 -0.9979
vn -0.0395 0.0514 0.9979
vn 0.0085 0.0643 -0.9979
vn -0.0248 0.0599 0.9979
vn 0.0248 0.0599 -0.9979
vn -0.0085 0.0643 0.9979
vn 0.0395 0.0514 -0.9979
vn 0.0085 0.0643 0.9979
vn 0.0514 0.0395 -0.9979
vn 0.1592 0.0000 -0.9872
vn 0.0248 0.0599 0.9979
vn 0.0599 0.0248 -0.9979
vn 0.0492 -0.1514 -0.9872
vn 0.0395 0.0514 0.9979
vn 0.0643 0.0085 -0.9979
vn -0.1288 -0.0936 -0.9872
vn 0.0514 0.0395 0.9979
vn 0.1592 0.0000 0.9872
vn 0.0492 0.1514 -0.9872
vn 0.0599 0.0248 0.9979
vn 0.0492 -0.1514 0.9872
vn -0.1288 0.0936 -0.9872
vn 0.0643 0.0085 0.9979
vn -0.1288 -0.0936 0.9872
vn 0.0643 -0.0085 -0.9979
vn 0.0492 0.1514 0.9872
vn 0.0599 -0.0248 -0.9979
vn -0.1288 0.0936 0.9872
vn 0.0514 -0.0395 -0.9979
vn 0.0643 -0.0085 0.9979
vn 0.0395 -0.0514 -0.9979
vn 0.0599 -0.0248 0.9979
vn 0.0248 -0.0599 -0.9979
vn 0.0514 -0.0395 0.9979
vn 0.0085 -0.0643 -0.9979
vn 0.0395 -0.0514 0.9979
vn -0.0085 -0.0643 -0.9979
vn 0.0248 -0.0599 0.9979
vn -0.0248 -0.0599 -0.9979
vn 0.0085 -0.0643 0.9979
vn -0.0395 -0.0514 -0.9979
vn -0.0085 -0.0643 0.9979
vn -0.0514 -0.0395 -0.9979
vn -0.5047 0.5047 -0.7003
vn -0.6182 0.3569 -0.7003
vn -0.6182 0.3569 0.7003
vn -0.5047 0.5047 0.7003
vn -0.3569 0.6182 -0.7003
vn -0.3569 0.6182 0.7003
vn -0.1847 0.6895 -0.7003
vn -0.1847 0.6895 0.7003
vn -0.6895 0.1847 -0.7003
vn -0.7138 -0.0000 -0.7003
vn -0.7138 -0.0000 0.7003
vn -0.6895 0.1847 0.7003
usemtl Material.002
s off
f 22//1 21//1 50//1 51//1
f 23//2 22//2 51//2 52//2
f 24//3 23//3 52//3 53//3
f 25//4 24//4 53//4 54//4
f 12//5 11//5 40//5 41//5
f 26//6 25//6 54//6 55//6
f 13//7 12//7 41//7 42//7
f 27//8 26//8 55//8 56//8
f 14//9 13//9 42//9 43//9
f 28//10 27//10 56//10 57//10
f 15//11 14//11 43//11 44//11
f 2//12 5//12 34//12 31//12
f 29//13 28//13 57//13 58//13
f 16//14 15//14 44//14 45//14
f 1//15 30//15 32//15 3//15
f 6//16 29//16 58//16 35//16
f 17//17 16//17 45//17 46//17
f 2//18 31//18 33//18 4//18
f 18//19 17//19 46//19 47//19
f 1//20 4//20 33//20 30//20
f 19//21 18//21 47//21 48//21
f 3//22 32//22 34//22 5//22
f 20//23 19//23 48//23 49//23
f 21//24 20//24 49//24 50//24
f 80//25 109//25 108//25 79//25
f 67//24 96//24 95//24 66//24
f 81//26 110//26 109//26 80//26
f 68//1 97//1 96//1 67//1
f 82//5 111//5 110//5 81//5
f 69//2 98//2 97//2 68//2
f 83//7 112//7 111//7 82//7
f 70//3 99//3 98//3 69//3
f 84//9 113//9 112//9 83//9
f 71//4 100//4 99//4 70//4
f 85//11 114//11 113//11 84//11
f 72//6 101//6 100//6 71//6
f 86//14 115//14 114//14 85//14
f 73//8 102//8 101//8 72//8
f 59//27 88//27 89//27 60//27
f 87//17 116//17 115//17 86//17
f 74//10 103//10 102//10 73//10
f 61//28 62//28 91//28 90//28
f 65//19 94//19 116//19 87//19
f 75//13 104//13 103//13 74//13
f 59//29 63//29 92//29 88//29
f 76//16 105//16 104//16 75//16
f 61//30 90//30 92//30 63//30
f 77//31 106//31 105//31 76//31
f 62//32 60//32 89//32 91//32
f 78//33 107//33 106//33 77//33
f 64//21 93//21 94//21 65//21
f 79//34 108//34 107//34 78//34
f 66//23 95//23 93//23 64//23
f 42//35 100//35 101//35 43//35
f 17//36 75//36 74//36 16//36
f 43//37 101//37 102//37 44//37
f 18//38 76//38 75//38 17//38
f 44//39 102//39 103//39 45//39
f 19//40 77//40 76//40 18//40
f 45//41 103//41 104//41 46//41
f 20//42 78//42 77//42 19//42
f 46//43 104//43 105//43 47//43
f 21//44 79//44 78//44 20//44
f 47//45 105//45 106//45 48//45
f 22//46 80//46 79//46 21//46
f 48//47 106//47 107//47 49//47
f 23//48 81//48 80//48 22//48
f 49//49 107//49 108//49 50//49
f 24//50 82//50 81//50 23//50
f 50//51 108//51 109//51 51//51
f 25//52 83//52 82//52 24//52
f 51//53 109//53 110//53 52//53
f 26//54 84//54 83//54 25//54
f 52//55 110//55 111//55 53//55
f 27//56 85//56 84//56 26//56
f 53//57 111//57 112//57 54//57
f 28//58 86//58 85//58 27//58
f 2//59 59//59 60//59 5//59
f 54//60 112//60 113//60 55//60
f 29//61 87//61 86//61 28//61
f 1//62 3//62 62//62 61//62
f 55//63 113//63 114//63 56//63
f 6//64 65//64 87//64 29//64
f 2//65 4//65 63//65 59//65
f 56//66 114//66 115//66 57//66
f 34//67 89//67 88//67 31//67
f 1//68 61//68 63//68 4//68
f 57//69 115//69 116//69 58//69
f 32//70 30//70 90//70 91//70
f 3//71 5//71 60//71 62//71
f 58//72 116//72 94//72 35//72
f 33//73 31//73 88//73 92//73
f 7//74 64//74 65//74 6//74
f 33//75 92//75 90//75 30//75
f 8//76 66//76 64//76 7//76
f 34//77 32//77 91//77 89//77
f 9//78 67//78 66//78 8//78
f 35//79 94//79 93//79 36//79
f 10//80 68//80 67//80 9//80
f 36//81 93//81 95//81 37//81
f 11//82 69//82 68//82 10//82
f 37//83 95//83 96//83 38//83
f 12//84 70//84 69//84 11//84
f 38//85 96//85 97//85 39//85
f 13//86 71//86 70//86 12//86
f 39//87 97//87 98//87 40//87
f 14//88 72//88 71//88 13//88
f 40//89 98//89 99//89 41//89
f 15//90 73//90 72//90 14//90
f 41//91 99//91 100//91 42//91
f 16//92 74//92 73//92 15//92
s 1
f 9//93 8//94 37//95 38//96
f 10//97 9//93 38//96 39//98
f 11//99 10//97 39//98 40//100
f 7//101 6//102 35//103 36//104
f 8//94 7//101 36//104 37//95
