# Blender v3.2.1 OBJ File: '3d_button_pentagram_circled.blend'
# www.blender.org
mtllib 3D_pentagram_002.mtl
o MESH_Circle.001
v -1.000000 -0.000000 0.000000
v -0.309017 0.951056 0.000000
v 0.809017 0.587785 -0.000000
v 0.809017 -0.587785 -0.000000
v -0.309017 -0.951057 0.000000
v -0.773873 -0.000000 0.012852
v -0.747504 0.200293 0.012852
v -0.670194 0.386936 0.012852
v -0.547211 0.547211 0.012852
v -0.386937 0.670194 0.012852
v -0.200293 0.747504 0.012852
v -0.000000 0.773873 0.012852
v 0.200293 0.747504 0.012852
v 0.386936 0.670194 0.012852
v 0.547211 0.547211 0.012852
v 0.670194 0.386937 0.012852
v 0.747504 0.200293 0.012852
v 0.773873 0.000000 0.012852
v 0.747504 -0.200293 0.012852
v 0.670194 -0.386936 0.012852
v 0.547211 -0.547211 0.012852
v 0.386937 -0.670194 0.012852
v 0.200293 -0.747504 0.012852
v 0.000000 -0.773873 0.012852
v -0.200293 -0.747504 0.012852
v -0.386936 -0.670194 0.012852
v -0.547211 -0.547211 0.012852
v -0.670194 -0.386937 0.012852
v -0.747504 -0.200293 0.012852
v -1.000000 -0.000000 0.099683
v -0.309017 0.951056 0.099683
v 0.809017 0.587785 0.099682
v 0.809017 -0.587785 0.099682
v -0.309017 -0.951057 0.099683
v -0.773873 -0.000000 0.086831
v -0.747504 0.200293 0.086831
v -0.670194 0.386936 0.086831
v -0.547211 0.547211 0.086831
v -0.386937 0.670194 0.086831
v -0.200293 0.747504 0.086831
v -0.000000 0.773873 0.086831
v 0.200293 0.747504 0.086831
v 0.386936 0.670194 0.086831
v 0.547211 0.547211 0.086831
v 0.670194 0.386937 0.086830
v 0.747504 0.200293 0.086830
v 0.773873 0.000000 0.086830
v 0.747504 -0.200293 0.086830
v 0.670194 -0.386936 0.086830
v 0.547211 -0.547211 0.086831
v 0.386937 -0.670194 0.086831
v 0.200293 -0.747504 0.086831
v 0.000000 -0.773873 0.086831
v -0.200293 -0.747504 0.086831
v -0.386936 -0.670194 0.086831
v -0.547211 -0.547211 0.086831
v -0.670194 -0.386937 0.086831
v -0.747504 -0.200293 0.086831
v -0.240959 0.741595 0.010977
v -0.240959 -0.741595 0.010977
v -0.779759 -0.000000 0.010977
v 0.630838 0.458331 0.010977
v 0.630838 -0.458331 0.010977
v -0.677992 0.181667 0.016292
v -0.701908 -0.000000 0.016292
v -0.607871 0.350954 0.016292
v -0.496324 0.496324 0.016292
v -0.350954 0.607871 0.016292
v -0.181667 0.677991 0.016292
v -0.000000 0.701908 0.016292
v 0.181667 0.677992 0.016292
v 0.350954 0.607871 0.016292
v 0.496324 0.496324 0.016292
v 0.607870 0.350954 0.016292
v 0.677991 0.181667 0.016292
v 0.701908 0.000000 0.016292
v 0.677992 -0.181667 0.016292
v 0.607871 -0.350954 0.016292
v 0.496324 -0.496324 0.016292
v 0.350954 -0.607871 0.016292
v 0.181667 -0.677992 0.016292
v 0.000000 -0.701908 0.016292
v -0.181667 -0.677992 0.016292
v -0.350954 -0.607871 0.016292
v -0.496324 -0.496324 0.016292
v -0.607870 -0.350954 0.016292
v -0.677992 -0.181667 0.016292
v -0.240959 0.741595 0.088706
v -0.240959 -0.741595 0.088706
v -0.779759 -0.000000 0.088706
v 0.630838 0.458331 0.088705
v 0.630838 -0.458331 0.088705
v -0.677992 0.181667 0.083391
v -0.701908 -0.000000 0.083391
v -0.607871 0.350954 0.083391
v -0.496324 0.496324 0.083391
v -0.350954 0.607871 0.083391
v -0.181667 0.677991 0.083391
v -0.000000 0.701908 0.083391
v 0.181667 0.677992 0.083391
v 0.350954 0.607871 0.083391
v 0.496324 0.496324 0.083391
v 0.607870 0.350954 0.083391
v 0.677991 0.181667 0.083391
v 0.701908 0.000000 0.083391
v 0.677992 -0.181667 0.083391
v 0.607871 -0.350954 0.083391
v 0.496324 -0.496324 0.083391
v 0.350954 -0.607871 0.083391
v 0.181667 -0.677992 0.083391
v 0.000000 -0.701908 0.083391
v -0.181667 -0.677992 0.083391
v -0.350954 -0.607871 0.083391
v -0.496324 -0.496324 0.083391
v -0.607870 -0.350954 0.083391
v -0.677992 -0.181667 0.083391
v 0.496324 -0.496324 0.043808
v 0.496324 -0.496324 0.055874
v 0.350954 -0.607871 0.055874
v 0.350954 -0.607871 0.043808
v -0.607871 0.350954 0.043808
v -0.607871 0.350954 0.055874
v -0.496324 0.496324 0.055874
v -0.496324 0.496324 0.043808
v 0.181667 -0.677992 0.055874
v 0.181667 -0.677992 0.043808
v -0.350954 0.607871 0.055874
v -0.350954 0.607871 0.043808
v 0.000000 -0.701908 0.055874
v 0.000000 -0.701908 0.043808
v -0.181667 0.677991 0.055874
v -0.181667 0.677991 0.043808
v -0.181667 -0.677992 0.055874
v -0.181667 -0.677992 0.043808
v -0.000000 0.701908 0.055874
v -0.000000 0.701908 0.043808
v -0.350954 -0.607871 0.055874
v -0.350954 -0.607871 0.043808
v 0.181667 0.677992 0.055874
v 0.181667 0.677992 0.043808
v -0.496324 -0.496324 0.055874
v -0.496324 -0.496324 0.043808
v 0.350954 0.607871 0.055874
v 0.350954 0.607871 0.043808
v -0.607870 -0.350954 0.055874
v -0.607870 -0.350954 0.043808
v 0.496324 0.496324 0.055874
v 0.496324 0.496324 0.043808
v -0.677992 -0.181667 0.055874
v -0.677992 -0.181667 0.043808
v 0.607870 0.350954 0.055874
v 0.607870 0.350954 0.043808
v -0.701908 -0.000000 0.055874
v -0.701908 -0.000000 0.043808
v 0.677991 0.181667 0.055874
v 0.677991 0.181667 0.043808
v 0.701908 0.000000 0.055874
v 0.701908 0.000000 0.043808
v 0.677992 -0.181667 0.055874
v 0.677992 -0.181667 0.043808
v 0.607871 -0.350954 0.055874
v 0.607871 -0.350954 0.043808
v -0.677992 0.181667 0.055874
v -0.677992 0.181667 0.043808
vn -1.0000 -0.0000 0.0000
vn -0.3090 0.9511 0.0000
vn 0.8090 0.5878 0.0000
vn -0.3090 -0.9511 0.0000
vn 0.8090 -0.5878 0.0000
vn 1.0000 0.0000 0.0000
vn 0.3090 -0.9511 0.0000
vn -0.8090 -0.5878 0.0000
vn 0.3090 0.9511 0.0000
vn -0.8090 0.5878 0.0000
vn -0.0184 -0.0445 0.9988
vn -0.0445 -0.0184 -0.9988
vn -0.0293 -0.0382 0.9988
vn -0.0477 -0.0063 -0.9988
vn -0.0382 -0.0293 0.9988
vn -0.0477 0.0063 -0.9988
vn -0.0445 -0.0184 0.9988
vn -0.0445 0.0184 -0.9988
vn -0.0477 -0.0063 0.9988
vn -0.0382 0.0293 -0.9988
vn -0.0477 0.0063 0.9988
vn -0.0293 0.0382 -0.9988
vn -0.0445 0.0184 0.9988
vn -0.0184 0.0445 -0.9988
vn -0.0382 0.0293 0.9988
vn -0.0063 0.0477 -0.9988
vn -0.0293 0.0382 0.9988
vn 0.0063 0.0477 -0.9988
vn -0.0184 0.0445 0.9988
vn 0.0184 0.0445 -0.9988
vn -0.0063 0.0477 0.9988
vn 0.0293 0.0382 -0.9988
vn 0.0063 0.0477 0.9988
vn 0.0382 0.0293 -0.9988
vn 0.1592 0.0000 -0.9872
vn 0.0184 0.0445 0.9988
vn 0.0445 0.0184 -0.9988
vn 0.0492 -0.1514 -0.9872
vn 0.0293 0.0382 0.9988
vn 0.0477 0.0063 -0.9988
vn -0.1288 -0.0936 -0.9872
vn 0.0382 0.0293 0.9988
vn 0.1592 0.0000 0.9872
vn 0.0492 0.1514 -0.9872
vn 0.0445 0.0184 0.9988
vn 0.0492 -0.1514 0.9872
vn -0.1288 0.0936 -0.9872
vn 0.0477 0.0063 0.9988
vn -0.1288 -0.0936 0.9872
vn 0.0477 -0.0063 -0.9988
vn 0.0492 0.1514 0.9872
vn 0.0445 -0.0184 -0.9988
vn -0.1288 0.0936 0.9872
vn 0.0382 -0.0293 -0.9988
vn 0.0477 -0.0063 0.9988
vn 0.0293 -0.0382 -0.9988
vn 0.0445 -0.0184 0.9988
vn 0.0184 -0.0445 -0.9988
vn 0.0382 -0.0293 0.9988
vn 0.0063 -0.0477 -0.9988
vn 0.0293 -0.0382 0.9988
vn -0.0063 -0.0477 -0.9988
vn 0.0184 -0.0445 0.9988
vn -0.0184 -0.0445 -0.9988
vn 0.0063 -0.0477 0.9988
vn -0.0293 -0.0382 -0.9988
vn -0.0063 -0.0477 0.9988
vn -0.0382 -0.0293 -0.9988
vn 0.3596 -0.6228 -0.6949
vn 0.5085 -0.5085 -0.6949
vn 0.5085 -0.5085 0.6949
vn 0.3596 -0.6228 0.6949
vn -0.5085 0.5085 -0.6949
vn -0.6228 0.3596 -0.6949
vn -0.6228 0.3596 0.6949
vn -0.5085 0.5085 0.6949
vn 0.1861 -0.6946 -0.6949
vn 0.1861 -0.6946 0.6949
vn -0.3596 0.6228 -0.6949
vn -0.3596 0.6228 0.6949
vn 0.0000 -0.7191 -0.6949
vn 0.0000 -0.7191 0.6949
vn -0.1861 0.6946 -0.6949
vn -0.1861 0.6946 0.6949
vn -0.1861 -0.6946 -0.6949
vn -0.1861 -0.6946 0.6949
vn -0.0000 0.7191 -0.6949
vn -0.0000 0.7191 0.6949
vn -0.3596 -0.6228 -0.6949
vn -0.3596 -0.6228 0.6949
vn 0.1861 0.6946 -0.6949
vn 0.1861 0.6946 0.6949
vn -0.5085 -0.5085 -0.6949
vn -0.5085 -0.5085 0.6949
vn 0.3596 0.6228 -0.6949
vn 0.3596 0.6228 0.6949
vn -0.6228 -0.3596 -0.6949
vn -0.6228 -0.3596 0.6949
vn 0.5085 0.5085 -0.6949
vn 0.5085 0.5085 0.6949
vn -0.6946 -0.1861 -0.6949
vn -0.6946 -0.1861 0.6949
vn 0.6228 0.3596 -0.6949
vn 0.6228 0.3596 0.6949
vn -0.7191 -0.0000 -0.6949
vn -0.7191 -0.0000 0.6949
vn 0.6946 0.1861 -0.6949
vn 0.6946 0.1861 0.6949
vn 0.7191 0.0000 -0.6949
vn 0.7191 0.0000 0.6949
vn 0.6946 -0.1861 -0.6949
vn 0.6946 -0.1861 0.6949
vn 0.6228 -0.3596 -0.6949
vn 0.6228 -0.3596 0.6949
vn -0.6946 0.1861 -0.6949
vn -0.6946 0.1861 0.6949
vn -0.4539 0.7861 -0.4196
vn -0.3470 0.6011 0.7199
vn -0.4908 0.4908 0.7199
vn -0.6418 0.6418 -0.4196
vn 0.6418 -0.6418 -0.4196
vn 0.4908 -0.4908 0.7199
vn 0.6011 -0.3470 0.7199
vn 0.7861 -0.4539 -0.4196
vn -0.2349 0.8768 -0.4196
vn -0.1796 0.6704 0.7199
vn 0.4539 -0.7861 -0.4196
vn 0.3470 -0.6011 0.7199
vn -0.0000 0.9077 -0.4196
vn 0.0000 0.6941 0.7199
vn 0.2349 -0.8768 -0.4196
vn 0.1796 -0.6704 0.7199
vn 0.2349 0.8768 -0.4196
vn 0.1796 0.6704 0.7199
vn 0.0000 -0.9077 -0.4196
vn 0.0000 -0.6941 0.7199
vn 0.4538 0.7861 -0.4196
vn 0.3470 0.6011 0.7199
vn -0.2349 -0.8768 -0.4196
vn -0.1796 -0.6704 0.7199
vn 0.6418 0.6418 -0.4196
vn 0.4908 0.4908 0.7199
vn -0.4539 -0.7861 -0.4196
vn -0.3470 -0.6011 0.7199
vn 0.7861 0.4539 -0.4196
vn 0.6011 0.3470 0.7199
vn -0.6418 -0.6418 -0.4196
vn -0.4908 -0.4908 0.7199
vn 0.8768 0.2349 -0.4196
vn 0.6704 0.1796 0.7199
vn -0.7861 -0.4539 -0.4196
vn -0.6011 -0.3470 0.7199
vn 0.9077 0.0000 -0.4196
vn 0.6941 0.0000 0.7199
vn -0.8768 -0.2349 -0.4196
vn -0.6704 -0.1796 0.7199
vn -0.9077 -0.0000 -0.4196
vn -0.6941 -0.0000 0.7199
vn -0.8768 0.2349 -0.4196
vn -0.6704 0.1796 0.7199
vn -0.7861 0.4538 -0.4196
vn -0.6011 0.3470 0.7199
vn 0.8768 -0.2349 -0.4196
vn 0.6704 -0.1796 0.7199
vn 0.6011 -0.3470 -0.7199
vn 0.6704 -0.1796 -0.7199
vn -0.4908 0.4908 -0.7199
vn -0.6011 0.3470 -0.7199
vn 0.6941 0.0000 -0.7199
vn -0.6704 0.1796 -0.7199
vn -0.6941 -0.0000 -0.7199
vn -0.6704 -0.1796 -0.7199
vn -0.6011 -0.3470 -0.7199
vn 0.6704 0.1796 -0.7199
vn -0.4908 -0.4908 -0.7199
vn 0.6011 0.3470 -0.7199
vn -0.4538 -0.7861 -0.4196
vn -0.3470 -0.6011 -0.7199
vn 0.4908 0.4908 -0.7199
vn -0.1796 -0.6704 -0.7199
vn 0.3470 0.6011 -0.7199
vn 0.0000 -0.6941 -0.7199
vn 0.1796 0.6704 -0.7199
vn 0.1796 -0.6704 -0.7199
vn -0.0000 0.6941 -0.7199
vn 0.3470 -0.6011 -0.7199
vn -0.1796 0.6704 -0.7199
vn 0.4908 -0.4908 -0.7199
vn -0.3470 0.6011 -0.7199
vn -0.0000 -0.0000 -1.0000
usemtl Material.002
s off
f 2//1 5//1 34//1 31//1
f 1//2 30//2 32//2 3//2
f 2//3 31//3 33//3 4//3
f 1//4 4//4 33//4 30//4
f 3//5 32//5 34//5 5//5
f 59//6 88//6 89//6 60//6
f 61//7 62//7 91//7 90//7
f 59//8 63//8 92//8 88//8
f 61//9 90//9 92//9 63//9
f 62//10 60//10 89//10 91//10
f 42//11 100//11 101//11 43//11
f 17//12 75//12 74//12 16//12
f 43//13 101//13 102//13 44//13
f 18//14 76//14 75//14 17//14
f 44//15 102//15 103//15 45//15
f 19//16 77//16 76//16 18//16
f 45//17 103//17 104//17 46//17
f 20//18 78//18 77//18 19//18
f 46//19 104//19 105//19 47//19
f 21//20 79//20 78//20 20//20
f 47//21 105//21 106//21 48//21
f 22//22 80//22 79//22 21//22
f 48//23 106//23 107//23 49//23
f 23//24 81//24 80//24 22//24
f 49//25 107//25 108//25 50//25
f 24//26 82//26 81//26 23//26
f 50//27 108//27 109//27 51//27
f 25//28 83//28 82//28 24//28
f 51//29 109//29 110//29 52//29
f 26//30 84//30 83//30 25//30
f 52//31 110//31 111//31 53//31
f 27//32 85//32 84//32 26//32
f 53//33 111//33 112//33 54//33
f 28//34 86//34 85//34 27//34
f 2//35 59//35 60//35 5//35
f 54//36 112//36 113//36 55//36
f 29//37 87//37 86//37 28//37
f 1//38 3//38 62//38 61//38
f 55//39 113//39 114//39 56//39
f 6//40 65//40 87//40 29//40
f 2//41 4//41 63//41 59//41
f 56//42 114//42 115//42 57//42
f 34//43 89//43 88//43 31//43
f 1//44 61//44 63//44 4//44
f 57//45 115//45 116//45 58//45
f 32//46 30//46 90//46 91//46
f 3//47 5//47 60//47 62//47
f 58//48 116//48 94//48 35//48
f 33//49 31//49 88//49 92//49
f 7//50 64//50 65//50 6//50
f 33//51 92//51 90//51 30//51
f 8//52 66//52 64//52 7//52
f 34//53 32//53 91//53 89//53
f 9//54 67//54 66//54 8//54
f 35//55 94//55 93//55 36//55
f 10//56 68//56 67//56 9//56
f 36//57 93//57 95//57 37//57
f 11//58 69//58 68//58 10//58
f 37//59 95//59 96//59 38//59
f 12//60 70//60 69//60 11//60
f 38//61 96//61 97//61 39//61
f 13//62 71//62 70//62 12//62
f 39//63 97//63 98//63 40//63
f 14//64 72//64 71//64 13//64
f 40//65 98//65 99//65 41//65
f 15//66 73//66 72//66 14//66
f 41//67 99//67 100//67 42//67
f 16//68 74//68 73//68 15//68
s 1
f 22//69 21//70 50//71 51//72
f 9//73 8//74 37//75 38//76
f 23//77 22//69 51//72 52//78
f 10//79 9//73 38//76 39//80
f 24//81 23//77 52//78 53//82
f 11//83 10//79 39//80 40//84
f 25//85 24//81 53//82 54//86
f 12//87 11//83 40//84 41//88
f 26//89 25//85 54//86 55//90
f 13//91 12//87 41//88 42//92
f 27//93 26//89 55//90 56//94
f 14//95 13//91 42//92 43//96
f 28//97 27//93 56//94 57//98
f 15//99 14//95 43//96 44//100
f 29//101 28//97 57//98 58//102
f 16//103 15//99 44//100 45//104
f 6//105 29//101 58//102 35//106
f 17//107 16//103 45//104 46//108
f 18//109 17//107 46//108 47//110
f 19//111 18//109 47//110 48//112
f 20//113 19//111 48//112 49//114
f 7//115 6//105 35//106 36//116
f 21//70 20//113 49//114 50//71
f 8//74 7//115 36//116 37//75
f 119//117 109//118 108//119 118//120
f 123//121 96//122 95//123 122//124
f 125//125 110//126 109//118 119//117
f 127//127 97//128 96//122 123//121
f 129//129 111//130 110//126 125//125
f 131//131 98//132 97//128 127//127
f 133//133 112//134 111//130 129//129
f 135//135 99//136 98//132 131//131
f 137//137 113//138 112//134 133//133
f 139//139 100//140 99//136 135//135
f 141//141 114//142 113//138 137//137
f 143//143 101//144 100//140 139//139
f 145//145 115//146 114//142 141//141
f 147//147 102//148 101//144 143//143
f 149//149 116//150 115//146 145//145
f 151//151 103//152 102//148 147//147
f 153//153 94//154 116//150 149//149
f 155//155 104//156 103//152 151//151
f 157//157 105//158 104//156 155//155
f 159//159 106//160 105//158 157//157
f 161//161 107//162 106//160 159//159
f 163//163 93//164 94//154 153//153
f 118//120 108//119 107//162 161//161
f 122//124 95//123 93//164 163//163
f 66//165 121//124 164//163 64//166
f 121//124 122//124 163//163 164//163
f 79//167 117//120 162//161 78//168
f 117//120 118//120 161//161 162//161
f 64//166 164//163 154//153 65//169
f 164//163 163//163 153//153 154//153
f 78//168 162//161 160//159 77//170
f 162//161 161//161 159//159 160//159
f 77//170 160//159 158//157 76//171
f 160//159 159//159 157//157 158//157
f 76//171 158//157 156//155 75//172
f 158//157 157//157 155//155 156//155
f 75//172 156//155 152//151 74//173
f 156//155 155//155 151//151 152//151
f 65//169 154//153 150//149 87//174
f 154//153 153//153 149//149 150//149
f 74//173 152//151 148//147 73//175
f 152//151 151//151 147//147 148//147
f 87//174 150//149 146//145 86//176
f 150//149 149//149 145//145 146//145
f 73//175 148//147 144//177 72//178
f 148//147 147//147 143//143 144//177
f 86//176 146//145 142//141 85//179
f 146//145 145//145 141//141 142//141
f 72//178 144//177 140//139 71//180
f 144//177 143//143 139//139 140//139
f 85//179 142//141 138//137 84//181
f 142//141 141//141 137//137 138//137
f 71//180 140//139 136//135 70//182
f 140//139 139//139 135//135 136//135
f 84//181 138//137 134//133 83//183
f 138//137 137//137 133//133 134//133
f 70//182 136//135 132//131 69//184
f 136//135 135//135 131//131 132//131
f 83//183 134//133 130//129 82//185
f 134//133 133//133 129//129 130//129
f 69//184 132//131 128//127 68//186
f 132//131 131//131 127//127 128//127
f 82//185 130//129 126//125 81//187
f 130//129 129//129 125//125 126//125
f 68//186 128//127 124//121 67//188
f 128//127 127//127 123//121 124//121
f 81//187 126//125 120//117 80//189
f 126//125 125//125 119//117 120//117
f 67//188 124//121 121//124 66//165
f 124//121 123//121 122//124 121//124
f 80//189 120//117 117//120 79//167
f 120//117 119//117 118//120 117//120
usemtl Material.003
s off
f 122//190 123//190 127//190 131//190 135//190 139//190 143//190 147//190 151//190 155//190 157//190 159//190 161//190 118//190 119//190 125//190 129//190 133//190 137//190 141//190 145//190 149//190 153//190 163//190
f 124//190 128//190 132//190 136//190 140//190 144//190 148//190 152//190 156//190 158//190 160//190 162//190 117//190 120//190 126//190 130//190 134//190 138//190 142//190 146//190 150//190 154//190 164//190 121//190
